# xmcd
#
# Track frame offsets:
#       150
#       15100
#       131492
#       170548
#
# Disc length: 3399 seconds
#
# Revision: 1
# Processed by: cddbd v1.5.1PL2 Copyright (c) Steve Scherf et al.
# Submitted via: freedbtool 1.11
#
DISCID=230d4504
DTITLE=Stevie Ray Vaughan and Buddy Guy - It's still called the Blues
DYEAR=1900
DGENRE=
TTITLE0=It's called the Blues
TTITLE1=Champagne And Reefer
TTITLE2=Mary Had A Little Lamb
TTITLE3=Leave My Girl Alone
EXTD=
EXTT0=
EXTT1=
EXTT2=
EXTT3=
PLAYORDER=
